<?xml version="1.0" encoding="utf-8"?>
<!-- Generator: Adobe Illustrator 22.0.1, SVG Export Plug-In . SVG Version: 6.00 Build 0)  -->
<svg version="1.1" id="圖層_1" xmlns="http://www.w3.org/2000/svg" xmlns:xlink="http://www.w3.org/1999/xlink" x="0px" y="0px"
	 viewBox="0 0 1253.3 1470.8" style="enable-background:new 0 0 1253.3 1470.8;" xml:space="preserve">
<style type="text/css">
	.st0{fill:none;stroke:#FF9D00;stroke-width:2;stroke-miterlimit:10;}
</style>
<g>
	<g>
		
			<image style="overflow:visible;opacity:0.75;enable-background:new    ;" width="59" height="56" xlink:href="D2DBC70BC521F727.png"  transform="matrix(1 0 0 1 -427.2599 1366.252)">
		</image>
		<g>
			
				<text transform="matrix(1 0 0 1 -422.1311 1401.1412)" style="fill:#94FFD6; font-family:'BrushScriptMT'; font-size:37.2298px;">EL</text>
		</g>
	</g>
	<text transform="matrix(1 0 0 1 -370.052 1388.3599)" style="fill:#FF9D00; font-family:'Arial-Black'; font-size:12px;">Food</text>
	<text transform="matrix(1 0 0 1 -370.052 1402.7599)" style="fill:#FF9D00; font-family:'Arial-Black'; font-size:12px;">Finder</text>
</g>
<g id="Ro45ur.tif">
	
		<image style="overflow:visible;enable-background:new    ;" width="1150" height="568" id="Layer_0_4_" xlink:href="D2DBC70BC521F725.png"  transform="matrix(0.5 0 0 0.5 -575.2598 1011.252)">
	</image>
</g>
<rect x="-527.3" y="1114.3" class="st0" width="440" height="66"/>
<g id="_x35_owUDF.tif">
	
		<image style="overflow:visible;" width="2524" height="1164" id="Layer_0_1_" xlink:href="D2DBC70BC521F72B.png"  transform="matrix(0.4967 0 0 0.4967 -0.2598 3.7316)">
	</image>
</g>
<g id="_x32_ljN7k.tif">
	
		<image style="overflow:visible;" width="1274" height="819" id="Layer_0" xlink:href="D2DBC70BC521F72D.png"  transform="matrix(0.9847 0 0 0.9847 -1.2598 587.0242)">
	</image>
</g>
<g id="AoEKia.tif">
	
		<image style="overflow:visible;" width="1283" height="47" id="Layer_0_2_" xlink:href="D2DBC70BC521F72F.png"  transform="matrix(0.9769 0 0 0.9769 0 1422.207)">
	</image>
</g>
</svg>
